<?xml version="1.0" standalone="no"?><!DOCTYPE svg PUBLIC "-//W3C//DTD SVG 1.1//EN" "http://www.w3.org/Graphics/SVG/1.1/DTD/svg11.dtd"><svg t="1721272621295" class="icon" viewBox="0 0 1024 1024" version="1.1" xmlns="http://www.w3.org/2000/svg" p-id="4272" xmlns:xlink="http://www.w3.org/1999/xlink" width="200" height="200"><path d="M512.019836 0.699834C229.341005 0.699834 0.168979 229.560774 0.168979 511.88335 0.168979 794.205926 229.341004 1023.07233 512.019836 1023.07233 794.708243 1023.07233 1023.884371 794.207292 1023.884371 511.88335 1023.883002 229.560774 794.708243 0.699834 512.019836 0.699834L512.019836 0.699834 512.019836 0.699834ZM512.019836 946.392342C271.735784 946.392342 76.94223 751.847291 76.94223 511.884714 76.94223 271.905741 271.735784 77.372992 512.019836 77.372992 752.301152 77.372992 947.09607 271.905747 947.09607 511.884714 947.094707 751.845925 752.301152 946.392342 512.019836 946.392342L512.019836 946.392342 512.019836 946.392342ZM537.897737 605.680295 552.23407 225.652115 457.610169 225.652115 471.958814 605.680295 537.897737 605.680295 537.897737 605.680295ZM503.504218 665.792529C471.960182 665.792529 446.874335 691.55472 446.874335 723.754385 446.874335 755.247731 470.514236 782.443053 503.504218 782.443053 535.015423 782.443053 560.83587 756.672665 560.83587 723.754385 560.83587 691.556087 535.015423 665.792529 503.504218 665.792529L503.504218 665.792529 503.504218 665.792529Z" fill="#272636" p-id="4273"></path></svg>