<svg t="1711282204813" class="icon" viewBox="0 0 1031 1024" version="1.1" xmlns="http://www.w3.org/2000/svg" p-id="1297" width="128" height="128"><path d="M970.522323 106.639537h-394.258672v-46.14210699a61.01012 61.01012 0 0 0-121.50754901 0v46.14210699H60.49742999a60.49743001 60.49743001 0 0 0 2e-8 120.994859h6.15228099v545.50224601a90.74614401 90.74614401 0 0 0 90.746144 90.746144H410.152065l-84.081174 81.51772299a46.142107 46.142107 0 0 0 0 65.11164 46.142107 46.142107 0 0 0 65.111641 0l124.070999-124.07099899 124.071 124.07099899a46.654797 46.654797 0 0 0 65.62433 0 46.142107 46.142107 0 0 0 0-65.11164l-81.51772299-81.51772299H871.573137a90.74614401 90.74614401 0 0 0 90.74614499-90.746144V227.634396h6.15228101a60.49743001 60.49743001 0 0 0 0-120.994859zM228.659776 291.720656h570.11136999a33.324855 33.324855 0 1 1 0 66.649711H228.659776a33.324855 33.324855 0 1 1 0-66.649711z m280.44147401 180.979599a33.324855 33.324855 0 0 1-33.32485501 33.32485501H230.19784601a33.324855 33.324855 0 1 1 0-66.64971102h245.57854899a33.324855 33.324855 0 0 1 33.32485501 33.32485601z m-312.22825901 153.807024a33.324855 33.324855 0 0 1 33.32485499-33.324855h250.19276a33.324855 33.324855 0 0 1 0 66.64971001H230.19784601a33.324855 33.324855 0 0 1-33.32485501-32.29947501z m553.192597 144.57860299a144.578603 144.578603 0 1 1 144.065913-144.57860299 144.578603 144.578603 0 0 1-144.065913 145.60398301z" p-id="1298"></path><path d="M769.035121 608.050436v-75.878132a22.045673 22.045673 0 0 0-44.09134699 0v97.923805a22.045673 22.045673 0 0 0 22.04567399 22.045674h97.923805a22.045673 22.045673 0 0 0 0-44.091347z" p-id="1299"></path></svg>