<svg t="1711282255092" class="icon" viewBox="0 0 1024 1024" version="1.1" xmlns="http://www.w3.org/2000/svg" p-id="1459" width="128" height="128"><path d="M935.20009545 812.25002857l-123.69572093 124.02712272-149.04795843-149.37936024c-57.33251097 35.45999234-124.27567408 56.83540827-196.60411639 56.83540828a377.54949783 377.54949783 0 0 1-376.96954469-377.96375008 377.54949783 377.54949783 0 0 1 376.96954469-378.04660054 377.54949783 377.54949783 0 0 1 376.96954468 378.04660054c0 72.4941432-21.29256549 139.6030072-56.66970737 197.18406952l149.04795844 149.2965098z m-467.35938496-596.52323556a251.69966523 251.69966523 0 0 0-251.36826344 251.94821657 251.69966523 251.69966523 0 0 0 251.36826344 252.03106703A251.69966523 251.69966523 0 0 0 719.12612347 467.67500958a251.69966523 251.69966523 0 0 0-251.36826344-252.03106702z" p-id="1460"></path></svg>