<?xml version="1.0" encoding="utf-8"?>
<!-- Generator: Adobe Illustrator 24.0.0, SVG Export Plug-In . SVG Version: 6.00 Build 0)  -->
<svg version="1.1" id="图层_1" xmlns="http://www.w3.org/2000/svg" xmlns:xlink="http://www.w3.org/1999/xlink" x="0px" y="0px"
	 viewBox="0 0 800 800" style="enable-background:new 0 0 800 800;" xml:space="preserve">
<style type="text/css">
	.st0{fill:url(#SVGID_1_);}
	.st1{fill:url(#SVGID_2_);}
	.st2{fill:url(#SVGID_3_);}
	.st3{fill:#FFFFFF;}
	.st4{fill:url(#SVGID_4_);}
	.st5{fill:url(#SVGID_5_);}
	.st6{fill:url(#SVGID_6_);}
	.st7{fill:url(#SVGID_7_);}
	.st8{opacity:0.2;fill:#FFFFFF;}
	.st9{fill:url(#SVGID_8_);}
	.st10{fill:url(#SVGID_9_);}
	.st11{opacity:0.5;fill:url(#SVGID_10_);}
	.st12{fill:url(#SVGID_11_);}
	.st13{fill:url(#SVGID_12_);}
	.st14{fill:url(#SVGID_13_);}
	.st15{fill:url(#SVGID_14_);}
	.st16{opacity:0.8;fill:url(#SVGID_15_);}
</style>
<g>
	<g>
		<g id="nameDefaultGroup_6_">
			<path d="M343.9,403h13.3c3.3,0,6.2,1,8.5,3.1c2.4,1.9,3.7,4.3,3.7,7.1l0,0v74.1c0,2.8-1.2,5.2-3.7,7.1c-2.3,1.8-5.1,2.8-8.5,2.8
				l0,0h-50.1c-3.3,0-6.2-0.9-8.5-2.8c-2.4-1.9-3.7-4.3-3.7-7.1l0,0v-74.1c0-2.8,1.2-5.2,3.7-7.1c2.3-2.1,5.1-3.1,8.5-3.1l0,0h13.1
				l2.3-7.6H346L343.9,403 M315.5,456.4h33.1v-12h-33.1V456.4 M315.5,429.5h33.1v-11.7h-33.1V429.5 M348.7,482.9v-11.5h-33.1v11.5
				H348.7 M458.3,448c4.4,0,6.6,1.9,6.6,5.7l0,0v37.7c0,1.8-0.5,3.3-1.5,4.4c-1,1-2.7,1.5-5,1.5l0,0h-37.6c-2.3,0-4-0.5-5-1.5
				c-1.2-1.1-1.7-2.5-1.7-4.4l0,0v-37.7c0-1.8,0.4-3.2,1.3-4.2s2.5-1.5,4.8-1.5l0,0H458.3 M420.3,404.8v-7.6h15.8v7.6h6.6v-7.6h16.2
				v7.6h6v13.6h-6v11.7h6v14.1H414v-14.1h6.4v-11.7H414v-13.6H420.3 M384.7,454.2l5.2-1.3v-13.6l-5.2,1.3v-13l5.2-1.3v-8.4
				c0-1.5-0.3-2.5-0.8-3.1c-0.4-0.5-1.4-0.8-3.1-0.8l0,0h-1.3v-16.7h8.5c4.8,0,8.3,0.9,10.8,2.8c2.4,1.9,3.7,5.3,3.7,9.9l0,0v12.7
				l3.3-0.8v13l-3.3,0.8V485c0,4.5-1.2,7.7-3.7,9.4c-2.4,1.8-6,2.8-10.8,2.8l0,0h-8.5v-16.4h1.2c1.7,0,2.8-0.3,3.3-0.8
				c0.5-0.5,0.8-1.6,0.8-3.1l0,0v-11.4l-5.2,1.1V454.2 M448.8,483.1V462H430v21.1H448.8 M439.4,467.5c1.7,0,3.1,0.5,4.4,1.5
				c1.3,1,1.9,2.2,1.9,3.7l0,0c0,1.5-0.6,2.8-1.9,3.7c-1.3,1.1-2.8,1.6-4.4,1.6l0,0c-1.8,0-3.3-0.5-4.4-1.6c-1.2-1-1.7-2.2-1.7-3.7
				l0,0c0-1.5,0.6-2.8,1.7-3.7C436.1,468,437.6,467.5,439.4,467.5L439.4,467.5 M436.1,430.1h6.6v-11.7h-6.6V430.1"/>
		</g>
	</g>
	<g>
		<g id="sloganDefaultGroup_6_">
			<path d="M312.8,345.7c-0.6,0.8-1.4,1.6-2.3,2.5c-0.9,0.9-1.9,1.8-2.9,2.7c-1,0.9-2.1,1.7-3.3,2.5c-1.3,0.9-2.5,1.7-3.7,2.3l0,0
				l-1.3-1.9c1.4-0.6,2.7-1.4,3.9-2.3c1.3-0.8,2.4-1.6,3.5-2.5c1-0.9,2-1.9,2.9-2.9c0.9-0.9,1.7-1.8,2.3-2.7l0,0h1.9
				c1.4,1.9,3.1,3.8,5.2,5.6c2.1,1.8,4.4,3.4,7.1,4.8l0,0l-1.3,1.9c-2.8-1.7-5.2-3.3-7.1-5C315.7,349.1,314.1,347.4,312.8,345.7
				L312.8,345.7 M314.4,366H325v2.1h-24.7V366h4v-10.4h2.1V366h5.6v-14.8h2.3v6.2h8.1v2.1h-8.1V366 M358.3,365.8v2.1h-25.4v-2.1h8.5
				v-22.2h2.3v22.2h3.9v-22.2h2.3v22.2H358.3 M357.1,349c-0.3,0.9-0.6,1.9-1,2.9c-0.3,1-0.6,2.1-1,3.1c-0.4,1-0.8,2.1-1.2,3.1
				s-0.8,2-1.3,2.9l0,0l-2.1-0.8c0.5-0.8,1-1.7,1.3-2.7c0.4-1,0.8-2.1,1.2-3.1c0.4-1.2,0.8-2.2,1.2-3.3c0.3-1,0.5-2,0.8-2.9l0,0
				L357.1,349 M338.3,361c-0.3-0.9-0.6-1.9-1-3.1c-0.4-1-0.8-2.1-1.2-3.1c-0.4-1-0.8-2-1.2-2.9c-0.4-1-0.8-1.9-1.2-2.5l0,0l2.1-1
				c0.3,0.6,0.6,1.5,1,2.5c0.5,0.9,1,1.9,1.3,3.1c0.4,1,0.8,2.1,1.2,3.1c0.4,1.2,0.7,2.1,1,2.9l0,0L338.3,361 M393,345.9v1.7h-25.2
				v-1.7h11.8c-0.1-0.5-0.3-1-0.4-1.3c-0.1-0.5-0.3-0.9-0.4-1.2l0,0l1.9-0.4c0.1,0.4,0.3,0.8,0.4,1.3c0.3,0.5,0.4,1,0.6,1.5l0,0H393
				 M388.4,349.6v5.4h-16.2v-5.4H388.4 M386.2,351.1h-11.9v2.3h11.9V351.1 M369.5,356.9h21.6v8.9c0,0.6-0.1,1.2-0.2,1.5
				c-0.1,0.4-0.3,0.7-0.4,1c-0.3,0.3-0.6,0.4-1,0.4c-0.4,0.1-0.9,0.3-1.5,0.4l0,0l-2.1,0.2l-0.8-2.1h2.1c0.4-0.1,0.6-0.2,0.8-0.2
				c0.3,0,0.4-0.1,0.6-0.2s0.2-0.3,0.2-0.4c0.1-0.3,0.2-0.5,0.2-0.8l0,0v-7.1h-17.3v10.8h-2.1V356.9 M385.7,366h-10.8v-5.6h10.8V366
				 M383.5,362.1H377v2.1h6.6V362.1 M403.8,353.4c-0.3,0-0.4,0-0.6,0c-0.3,0.1-0.5,0.2-0.8,0.2l0,0l-0.4-1.9
				c0.3-0.1,0.5-0.3,0.8-0.4c0.1-0.1,0.3-0.3,0.4-0.6l0,0c0.3-0.4,0.6-0.9,1-1.5c0.4-0.5,0.8-1.1,1.2-1.7c0.4-0.8,0.8-1.5,1.2-2.1
				c0.4-0.8,0.7-1.5,1-2.1l0,0l1.7,0.8c-0.3,0.6-0.6,1.3-1,2.1c-0.4,0.6-0.8,1.3-1.2,1.9c-0.4,0.6-0.8,1.3-1.2,1.9
				c-0.4,0.5-0.7,1-1,1.5l0,0c0.1,0,0.3-0.1,0.6-0.2c0.3,0,0.6,0,1,0c0.4,0,0.7,0,1,0c0.4,0,0.7,0,1,0l0,0c0.4-0.6,0.7-1.2,1-1.7
				c0.4-0.5,0.6-1,0.8-1.5l0,0l1.7,1c-0.4,0.8-0.8,1.5-1.3,2.3c-0.5,0.9-1,1.8-1.5,2.7c-0.6,0.8-1.2,1.5-1.7,2.3
				c-0.5,0.9-1,1.6-1.3,2.1l0,0l5.4-0.8l0.2,1.9c-0.1,0-0.4,0.1-0.8,0.2c-0.4,0-0.8,0-1.2,0c-0.5,0.1-1,0.2-1.5,0.2
				c-0.5,0.1-1,0.2-1.3,0.2c-0.5,0.1-0.9,0.2-1.2,0.2c-0.4,0.1-0.6,0.2-0.8,0.2l0,0c-0.4,0-0.7,0.1-1,0.2c-0.1,0-0.4,0.1-0.8,0.2
				l0,0l-0.6-2.1c0.4-0.1,0.7-0.3,1-0.4c0.3-0.3,0.5-0.5,0.8-0.8l0,0c0.5-0.6,1-1.3,1.5-2.1c0.5-0.8,1-1.5,1.5-2.3l0,0
				c-0.3,0-0.6,0-1,0c-0.4,0-0.7,0-1,0c-0.4,0-0.7,0.1-1,0.2C404.1,353.4,403.9,353.4,403.8,353.4L403.8,353.4 M422.3,362.5
				c0.9,0.9,1.9,1.7,2.9,2.5c1,0.8,2.2,1.5,3.5,2.3l0,0l-1.3,1.9c-1.3-0.8-2.4-1.6-3.5-2.5c-1-0.9-2-1.8-2.9-2.7l0,0
				c-0.9,1-1.9,2-3.1,2.9c-1.2,0.9-2.5,1.7-4,2.5l0,0l-1.3-1.5c1.5-0.9,2.9-1.7,4-2.5c1.2-0.9,2.2-1.9,3.1-2.9l0,0
				c-0.8-1-1.5-2.1-2.1-3.1c-0.6-1.2-1.2-2.4-1.5-3.9l0,0c-0.1,1.3-0.3,2.5-0.6,3.7s-0.6,2.2-1,3.3c-0.4,1.2-0.9,2.2-1.5,3.3
				s-1.4,2.1-2.3,3.3l0,0l-1.7-1.2c1-1.3,1.9-2.5,2.5-3.7c0.8-1.2,1.3-2.4,1.7-3.7c0.4-1.3,0.6-2.6,0.8-4c0.3-1.4,0.4-3,0.4-4.6l0,0
				c0-0.3,0-0.6,0-1c0.1-0.5,0.2-1,0.2-1.3c0-0.5,0-1,0-1.3c0-0.5,0-0.9,0-1.2l0,0h-2.3V345h12.5v2.1c-0.3,0.9-0.6,1.8-1,2.7
				c-0.3,0.9-0.6,1.7-1.2,2.5l0,0h3.7v1.9c-0.5,1.7-1.1,3.1-1.7,4.4C423.9,360.1,423.2,361.3,422.3,362.5L422.3,362.5 M416.1,350.4
				c0.5,2.2,1.2,4.2,1.9,6c0.8,1.7,1.7,3.2,2.9,4.6l0,0c0.6-0.9,1.3-1.9,1.9-3.1c0.5-1.2,1-2.4,1.3-3.7l0,0h-3.7v-1.7
				c0.4-0.8,0.8-1.7,1.2-2.7c0.4-0.9,0.7-1.8,1-2.7l0,0h-6.4c0,0.4,0,0.9,0,1.5C416.2,349.1,416.1,349.7,416.1,350.4L416.1,350.4
				 M410.7,365c-0.5,0.1-1.2,0.3-1.9,0.6s-1.5,0.4-2.3,0.6c-0.8,0.3-1.6,0.4-2.5,0.6c-0.8,0.1-1.4,0.3-1.9,0.4l0,0l-0.2-2.1
				c0.5,0,1.2-0.1,1.9-0.2c0.8-0.3,1.6-0.4,2.5-0.6c0.8-0.3,1.5-0.4,2.3-0.6c0.8-0.3,1.5-0.4,2.1-0.6l0,0v1V365 M450.4,348.1
				c0.3,2.1,0.6,4,1.2,5.8c0.6,1.8,1.5,3.5,2.5,5.2c0.9,1.5,2.1,3,3.5,4.4c1.3,1.4,2.8,2.7,4.6,3.9l0,0l-1.7,2.1
				c-2.7-2.3-4.9-4.7-6.7-7.1c-1.8-2.6-3.1-5.3-4-8.1l0,0c-0.8,2.8-2.1,5.5-3.9,7.9c-1.8,2.4-4.2,4.8-7.1,7.1l0,0l-1.5-1.9
				c1.9-1.5,3.6-3,5-4.4c1.4-1.5,2.6-3.1,3.5-4.8c0.9-1.7,1.6-3.5,2.1-5.4c0.4-1.9,0.6-4,0.6-6.2l0,0c0-0.1,0-0.3,0-0.6
				c0-0.4,0-0.7,0-1c0.1-0.3,0.2-0.5,0.2-0.8s0-0.4,0-0.6l0,0l2.1,0.2c0,0,0,0.2,0,0.6c0,0.3,0,0.6,0,1c0,0.4,0,0.8,0,1.2
				c-0.1,0.4-0.2,0.6-0.2,0.8l0,0c0,0.1,0,0.3,0,0.4C450.4,347.8,450.4,347.9,450.4,348.1L450.4,348.1 M494.7,350.9h-7.1v13.9
				c0,0.8-0.1,1.4-0.2,1.9c-0.1,0.5-0.4,1-0.8,1.3c-0.4,0.3-0.9,0.4-1.5,0.6c-0.8,0.1-1.7,0.3-2.7,0.4l0,0l-2.1,0.2l-0.8-2.5
				l2.5-0.2c0.8,0,1.3-0.1,1.7-0.2c0.4,0,0.7-0.1,1-0.2c0.3-0.3,0.4-0.5,0.4-0.8c0.1-0.4,0.2-0.8,0.2-1.3l0,0v-11.6
				c-0.9,1.3-1.8,2.6-2.7,3.9c-1,1.3-2.1,2.4-3.3,3.5c-1.2,1.2-2.4,2.2-3.9,3.3c-1.4,1-3,2.1-4.6,3.1l0,0l-1.5-2.1
				c3.5-1.9,6.4-4,8.7-6.2c2.3-2.1,4.2-4.4,5.8-6.9l0,0h-12.9v-2.1h14.4v-5.4h2.3v5.4h7.1V350.9 M530,352.5v1.9h-17.3v-1.9h4.4v-3.7
				h-3.7v-1.9h3.7v-3.3h1.9v3.3h4.2v-3.3h2.1v3.3h3.5v1.9h-3.5v3.7H530 M514,345.5c-1.3,1.5-2.6,2.9-3.9,4l0,0
				c0.4,0.9,0.7,1.8,1,2.7c0.1,0.9,0.3,1.9,0.4,2.9c0.1,1,0.3,2.2,0.4,3.5c0,1.3,0,2.7,0,4.2l0,0c0,1.2-0.1,2.1-0.2,2.9
				c-0.1,0.6-0.3,1.2-0.6,1.7c-0.3,0.4-0.6,0.7-1.2,1c-0.5,0.1-1.2,0.3-1.9,0.4l0,0h-1.5l-0.8-2.1l1.9-0.2c0.5,0,0.9-0.1,1.2-0.2
				c0.4-0.1,0.6-0.3,0.8-0.6c0.1-0.4,0.2-0.8,0.2-1.3c0.1-0.6,0.2-1.4,0.2-2.3l0,0c0-1-0.1-1.9-0.2-2.7c0-0.8,0-1.5,0-2.3l0,0
				c-0.8,1-1.5,1.9-2.3,2.7c-0.8,0.9-1.6,1.7-2.5,2.3l0,0l-1.3-1.5c0.4-0.4,0.8-0.8,1.3-1.3c0.5-0.4,1-0.8,1.5-1.3
				c0.5-0.5,1-1.1,1.5-1.7c0.5-0.5,1-1.1,1.3-1.7l0,0c-0.3-1-0.6-2.1-1-3.3l0,0c-0.5,0.5-1,1-1.5,1.5c-0.6,0.4-1.2,0.8-1.7,1.3l0,0
				l-1.3-1.7c0.6-0.5,1.3-1,1.9-1.5c0.6-0.5,1.3-1,1.9-1.5l0,0c-0.4-0.8-0.8-1.5-1.2-2.1c-0.4-0.8-0.8-1.5-1.3-2.3l0,0l1.7-1
				c0.5,0.6,1,1.3,1.3,1.9c0.4,0.6,0.7,1.3,1,1.9l0,0c0.6-0.5,1.2-1.1,1.7-1.7c0.6-0.6,1.2-1.3,1.5-1.9l0,0L514,345.5 M519,352.5
				h4.2v-3.7H519V352.5 M514.9,356.7h12.3v12.5h-1.9v-1.3H517v1.5h-2.1V356.7 M517,358.6v2.5h8.3v-2.5H517 M525.3,366v-2.9H517v2.9
				H525.3 M562.9,355.6h-12.5v-9.6h5.4v-2.7l1.7,0.2v2.5h5.4V355.6 M550,363.8c-0.4,0-0.7,0.1-1,0.2c-0.4,0-0.8,0.1-1.3,0.2l0,0v5
				h-1.7v-4.8c-1.3,0.3-2.6,0.4-3.9,0.6c-1.4,0.1-2.5,0.3-3.3,0.4l0,0l-0.2-1.9l2.1-0.2v-16.4h-1.5V345h10.2v1.9h-1.7v15.2
				c0.9-0.1,1.6-0.2,2.1-0.2l0,0L550,363.8 M542.5,346.9v4h3.5v-4H542.5 M552.1,347.7v2.3h3.7v-2.3H552.1 M557.5,347.7v2.3h3.7v-2.3
				H557.5 M552.1,353.8h3.7v-2.3h-3.7V353.8 M561.2,353.8v-2.3h-3.7v2.3H561.2 M542.5,356.9h3.5v-4h-3.5V356.9 M553.8,359.4
				l-0.2,1.9h8.7c0,0.1,0,0.4,0,0.8c-0.1,0.5-0.2,1-0.2,1.3c0,0.5-0.1,1-0.2,1.3c0,0.4,0,0.6,0,0.8l0,0c-0.1,0.6-0.3,1.2-0.4,1.7
				c-0.3,0.4-0.5,0.7-0.8,1c-0.4,0.3-0.9,0.4-1.5,0.6c-0.5,0.1-1.2,0.2-2.1,0.2l0,0l-1.7,0.2l-0.8-2.1h2.3c0.6-0.1,1.2-0.2,1.5-0.2
				c0.3-0.1,0.5-0.3,0.8-0.4c0.3-0.1,0.4-0.3,0.6-0.6c0.1-0.1,0.2-0.4,0.2-0.8l0,0c0-0.3,0.1-0.6,0.2-1.2c0-0.4,0-0.7,0-1l0,0h-8.7
				l0.6-3.7H549v-1.7h15.6v1.7H553.8 M542.5,362.9c0.6,0,1.2-0.1,1.7-0.2c0.6,0,1.2-0.1,1.7-0.2l0,0v-3.9h-3.5V362.9 M587.4,348.4
				h-13.1v-1.9h5.6c-0.1-0.5-0.3-1.1-0.4-1.7c-0.3-0.5-0.4-1-0.6-1.3l0,0l1.9-0.4c0.1,0.1,0.3,0.4,0.4,0.8c0.1,0.3,0.2,0.5,0.2,0.8
				c0.1,0.4,0.3,0.7,0.4,1c0.1,0.4,0.3,0.7,0.4,1l0,0h5.2V348.4 M591.2,352.1c0,2.1-0.1,3.9-0.4,5.4c-0.3,1.7-0.6,3.1-1,4.4
				s-1,2.5-1.7,3.7c-0.6,1.2-1.5,2.4-2.5,3.7l0,0l-1.7-1.2c0.9-1.3,1.7-2.4,2.5-3.5c0.6-1.2,1.2-2.3,1.5-3.5c0.4-1.2,0.7-2.5,1-4
				c0.1-1.4,0.3-3.1,0.4-5l0,0h-2.7V350h2.7v-0.2c0.1-0.4,0.2-1,0.2-1.7c0-0.8,0-1.5,0-2.1l0,0c0-0.9,0-1.8,0-2.7l0,0h1.9l-0.2,6.6
				v0.2h7.7v2.1H591.2 M596.6,349.4c-0.3-0.4-0.5-0.8-0.8-1.2c-0.4-0.4-0.7-0.8-1-1.2c-0.4-0.4-0.8-0.8-1.2-1.2
				c-0.3-0.3-0.5-0.5-0.8-0.8l0,0l1.3-1.3c0.3,0.3,0.5,0.6,0.8,1c0.4,0.3,0.8,0.6,1.2,1c0.4,0.4,0.7,0.8,1,1.2
				c0.3,0.4,0.5,0.7,0.8,1l0,0L596.6,349.4 M582,358.3v7.3c0,0.6-0.1,1.2-0.2,1.5c-0.1,0.4-0.3,0.7-0.6,1c-0.3,0.3-0.6,0.4-1,0.6
				c-0.4,0.1-0.9,0.2-1.5,0.2l0,0h-1.2l-0.8-1.9l1.5-0.2c0.6,0,1.1-0.1,1.3-0.4c0.1-0.3,0.2-0.7,0.2-1.3l0,0v-6.7h-4v-7.1h9.8v7.1
				H582 M599.1,363.5c0,0.5-0.1,1-0.2,1.3c0,0.5-0.1,1.1-0.2,1.7l0,0c-0.1,0.6-0.4,1.2-0.8,1.5c-0.4,0.4-1,0.6-1.7,0.6l0,0h-1.3
				c-0.8,0-1.3-0.3-1.7-0.8c-0.4-0.4-0.6-1.1-0.6-2.1l0,0v-13.3l1.9,0.2v12.7c0,0.5,0.1,0.8,0.2,1c0.3,0.3,0.6,0.4,1,0.4l0,0h0.4
				c0.4,0,0.6-0.1,0.8-0.4c0.3-0.1,0.4-0.4,0.4-1l0,0c0.1-0.5,0.2-1,0.2-1.3c0-0.4,0.1-0.8,0.2-1.3l0,0L599.1,363.5 M577.5,356.5
				h6.2v-3.7h-6.2V356.5 M585.2,364.8c0-0.4-0.1-0.8-0.4-1.2c-0.1-0.4-0.3-0.8-0.6-1.2c-0.3-0.4-0.5-0.8-0.8-1.2
				c-0.3-0.4-0.4-0.6-0.6-0.8l0,0l1.5-1c0.1,0.3,0.3,0.5,0.6,0.8c0.3,0.4,0.4,0.8,0.6,1.2c0.3,0.4,0.5,0.7,0.8,1
				c0.1,0.4,0.3,0.7,0.4,1l0,0L585.2,364.8 M578.3,360.2c-0.5,1.3-1.1,2.6-1.7,3.9s-1.2,2.4-1.7,3.5l0,0l-1.7-1c0.4-0.5,0.7-1,1-1.5
				c0.3-0.6,0.6-1.2,1-1.7c0.3-0.6,0.5-1.3,0.8-1.9c0.3-0.6,0.4-1.2,0.6-1.7l0,0L578.3,360.2 M632.1,365.8v2.1h-25.8v-2.1h11.2
				v-22.3h2.1v8.1h10.6v2.1h-10.6v12.1H632.1 M663.5,346.7v22.5h-2.3v-1.7h-14.6v1.9h-2.3v-22.7h6.7c0.3-0.6,0.5-1.3,0.8-1.9
				c0.3-0.8,0.4-1.4,0.6-1.9l0,0l2.5,0.4c-0.1,0.5-0.3,1.1-0.6,1.7c-0.3,0.6-0.5,1.2-0.8,1.7l0,0H663.5 M646.5,348.8v4.2h14.6v-4.2
				H646.5 M646.5,355v4h14.6v-4H646.5 M661.2,365.4v-4.2h-14.6v4.2H661.2 M701.4,352.5v1.9h-17.3v-1.9h4.4v-3.7h-3.7v-1.9h3.7v-3.3
				h1.9v3.3h4.2v-3.3h2.1v3.3h3.5v1.9h-3.5v3.7H701.4 M685.4,345.5c-1.3,1.5-2.6,2.9-3.9,4l0,0c0.4,0.9,0.7,1.8,1,2.7
				c0.1,0.9,0.3,1.9,0.4,2.9c0.1,1,0.3,2.2,0.4,3.5c0,1.3,0,2.7,0,4.2l0,0c0,1.2-0.1,2.1-0.2,2.9c-0.1,0.6-0.3,1.2-0.6,1.7
				c-0.3,0.4-0.6,0.7-1.2,1c-0.5,0.1-1.2,0.3-1.9,0.4l0,0h-1.5l-0.8-2.1l1.9-0.2c0.5,0,0.9-0.1,1.2-0.2c0.4-0.1,0.6-0.3,0.8-0.6
				c0.1-0.4,0.2-0.8,0.2-1.3c0.1-0.6,0.2-1.4,0.2-2.3l0,0c0-1-0.1-1.9-0.2-2.7c0-0.8,0-1.5,0-2.3l0,0c-0.8,1-1.5,1.9-2.3,2.7
				c-0.8,0.9-1.6,1.7-2.5,2.3l0,0l-1.3-1.5c0.4-0.4,0.8-0.8,1.3-1.3c0.5-0.4,1-0.8,1.5-1.3s1-1.1,1.5-1.7c0.5-0.5,1-1.1,1.3-1.7l0,0
				c-0.3-1-0.6-2.1-1-3.3l0,0c-0.5,0.5-1,1-1.5,1.5c-0.6,0.4-1.2,0.8-1.7,1.3l0,0l-1.3-1.7c0.6-0.5,1.3-1,1.9-1.5s1.3-1,1.9-1.5l0,0
				c-0.4-0.8-0.8-1.5-1.2-2.1c-0.4-0.8-0.8-1.5-1.3-2.3l0,0l1.7-1c0.5,0.6,1,1.3,1.3,1.9c0.4,0.6,0.7,1.3,1,1.9l0,0
				c0.6-0.5,1.2-1.1,1.7-1.7c0.6-0.6,1.2-1.3,1.5-1.9l0,0L685.4,345.5 M690.4,352.5h4.2v-3.7h-4.2V352.5 M686.4,356.7h12.3v12.5
				h-1.9v-1.3h-8.3v1.5h-2.1V356.7 M688.5,358.6v2.5h8.3v-2.5H688.5 M696.8,366v-2.9h-8.3v2.9H696.8 M734,345v20.4
				c0,0.6-0.1,1.2-0.2,1.7c0,0.4-0.2,0.8-0.6,1.2c-0.3,0.3-0.7,0.4-1.3,0.6c-0.5,0.1-1.2,0.2-2.1,0.2l0,0l-1.7,0.2l-0.8-2.1l2.1-0.2
				c0.5,0,1-0.1,1.3-0.2c0.4,0,0.6-0.1,0.8-0.2c0.3-0.3,0.4-0.5,0.4-0.8c0.1-0.3,0.2-0.6,0.2-1.2l0,0v-17.7h-17.9v22.3h-1.9V345H734
				 M721.6,362.9c-0.3-0.5-0.5-1.2-0.8-1.9c-0.3-0.6-0.6-1.4-1-2.3l0,0c-0.6,1.3-1.3,2.5-1.9,3.7c-0.6,1.2-1.3,2.2-1.9,3.3l0,0
				l-1.7-1.2c0.9-1.2,1.7-2.4,2.3-3.9c0.8-1.3,1.5-2.6,2.1-4l0,0c-0.5-1.3-1.1-2.4-1.7-3.5c-0.5-1.2-1-2.1-1.5-2.7l0,0l1.5-1
				c0.4,0.6,0.8,1.3,1.3,2.1c0.5,0.9,1,1.8,1.5,2.7l0,0c0.4-0.9,0.7-1.8,1-2.7c0.4-1,0.8-2,1.2-2.9l0,0l1.7,0.6
				c-0.4,1.3-0.8,2.5-1.3,3.7c-0.4,1.3-0.9,2.5-1.5,3.7l0,0c0.5,1,1,2,1.3,2.9c0.4,0.9,0.7,1.7,1,2.3l0,0L721.6,362.9 M730.1,365
				c-0.3-0.9-0.6-1.9-1.2-2.9c-0.5-1-1-2.1-1.5-3.3l0,0c-1.2,2.4-2.6,4.8-4.2,7.1l0,0l-1.5-1.2c0.9-1.3,1.7-2.6,2.5-4
				c0.8-1.3,1.5-2.6,2.1-4l0,0c-0.5-1-1-2-1.5-2.9c-0.5-0.9-1-1.7-1.5-2.3l0,0l1.5-1.2c0.4,0.5,0.8,1.2,1.3,1.9
				c0.4,0.6,0.8,1.3,1.2,2.1l0,0c0.9-1.8,1.6-3.7,2.1-5.6l0,0l1.9,0.8c-0.4,1.2-0.8,2.3-1.3,3.5c-0.4,1.3-0.9,2.5-1.5,3.7l0,0
				c0.8,1.3,1.4,2.5,1.9,3.7c0.6,1.3,1.1,2.4,1.3,3.3l0,0L730.1,365"/>
		</g>
	</g>
	<linearGradient id="SVGID_1_" gradientUnits="userSpaceOnUse" x1="111.1146" y1="358.4923" x2="135.928" y2="523.0877">
		<stop  offset="0.1846" style="stop-color:#00B7FF"/>
		<stop  offset="0.8714" style="stop-color:#1AAEFB"/>
		<stop  offset="1" style="stop-color:#1FACFA"/>
		<stop  offset="1" style="stop-color:#20ACFA"/>
	</linearGradient>
	<path class="st0" d="M182.6,462.7l-73.7,42.6c-10.5,6.1-22.8,2.7-29.4-5.8c-2.9-3.8-4.7-8.5-4.7-13.9v-74.3c0-4.5,1.2-8.7,3.4-12.4
		c4.2-3.5,9.6-5.6,15.4-5.6h33l-18.5,53.4c-0.8,2.4-0.9,5-0.1,7.5c0.2,0.7,0.5,1.3,0.8,1.9c0.3,0.5,0.6,1,0.9,1.5
		c0.4,0.6,0.9,1.1,1.4,1.6c0.5,0.5,1.1,1,1.7,1.4c0,0,0,0,0,0c2,1.3,4.3,2.1,6.7,2.1H182.6z"/>
	<linearGradient id="SVGID_2_" gradientUnits="userSpaceOnUse" x1="141.453" y1="395.8307" x2="114.1003" y2="532.5943">
		<stop  offset="0" style="stop-color:#FFFFFF"/>
		<stop  offset="0.2147" style="stop-color:#C6C6C6"/>
		<stop  offset="0.7611" style="stop-color:#393939"/>
		<stop  offset="1" style="stop-color:#000000"/>
	</linearGradient>
	<path class="st1" d="M193.4,456.5l-10.8,6.2l-73.7,42.6c-10.5,6.1-22.8,2.7-29.4-5.8c-2.9-3.8-4.7-8.5-4.7-13.9v-74.3
		c0-4.5,1.2-8.7,3.4-12.4c0,0,0,0,0,0c1.3-2.2,3-4.2,4.9-5.8c4.2-3.7,9.8-5.9,15.9-5.9H132l-18.5,53.4c-1.3,3.7-0.7,7.8,1.6,10.9
		c0.3,0.4,0.6,0.7,0.9,1.1c0.2,0.2,0.4,0.4,0.6,0.6c0.7,0.7,1.4,1.2,2.3,1.7c0.3,0.2,0.7,0.4,1.1,0.6c0.8,0.4,1.6,0.6,2.4,0.8
		c0.4,0.1,0.8,0.2,1.2,0.2c0.1,0,0.1,0,0.2,0c0.5,0.1,0.9,0.1,1.4,0.1H193.4z"/>
	<linearGradient id="SVGID_3_" gradientUnits="userSpaceOnUse" x1="178.8997" y1="472.0138" x2="80.2135" y2="388.097">
		<stop  offset="0" style="stop-color:#000000"/>
		<stop  offset="0.2389" style="stop-color:#393939"/>
		<stop  offset="0.7853" style="stop-color:#C6C6C6"/>
		<stop  offset="1" style="stop-color:#FFFFFF"/>
	</linearGradient>
	<path class="st2" d="M193.4,456.5l-10.8,6.2h-63.1c-3.9,0-7.6-1.9-9.8-5.1c-2.3-3.2-2.9-7.3-1.6-10.9l18.5-53.4H93.6
		c-5.9,0-11.2,2.1-15.4,5.6c4.2-7.1,11.9-11.8,20.8-11.8h33l-0.2,0.6l-0.1,0.3l-18.2,52.4c-1.3,3.7-0.7,7.8,1.6,10.9
		c2.3,3.2,5.9,5.1,9.8,5.1H193.4z"/>
	<path class="st3" d="M182.6,462.7c-11.9,0.4-23.8,0.7-35.6,0.9c-5.9,0.1-11.9,0.1-17.8,0.2l-8.9,0c-0.7,0-1.6,0-2.4-0.1
		c-0.8-0.1-1.6-0.3-2.4-0.5c-1.5-0.5-3-1.3-4.3-2.3c-2.5-2-4.2-5.1-4.7-8.3c-0.3-1.6-0.2-3.2,0.2-4.8c0.2-0.8,0.4-1.6,0.7-2.2
		l0.7-2.1c2-5.6,4-11.2,6-16.8c4-11.2,8.2-22.3,12.5-33.4l-18.5,53.4c-1.3,3.7-0.7,7.8,1.6,10.9c2.3,3.2,5.9,5.1,9.8,5.1H182.6z"/>
	<linearGradient id="SVGID_4_" gradientUnits="userSpaceOnUse" x1="50.5893" y1="328.6162" x2="237.8588" y2="468.5302">
		<stop  offset="0" style="stop-color:#F5F5F5"/>
		<stop  offset="4.211912e-02" style="stop-color:#EFEFEF"/>
		<stop  offset="9.829309e-02" style="stop-color:#DEDEDE"/>
		<stop  offset="0.1355" style="stop-color:#CFCFCF"/>
		<stop  offset="0.3138" style="stop-color:#C9C9C9"/>
		<stop  offset="0.5516" style="stop-color:#B8B8B8"/>
		<stop  offset="0.7375" style="stop-color:#A6A6A6"/>
		<stop  offset="1" style="stop-color:#636363"/>
	</linearGradient>
	<path class="st4" d="M80,313.4c-8.5,3.1-14,13.1-14,23.5v35.5h68.5c3.9,0,7.6,1.9,9.8,5.1c2.3,3.2,2.8,7.3,1.6,10.9l-18.5,53.4
		h80.2c7.8,0,15.4-2,22.1-5.9c1.8-1.1,3.5-2.3,4.9-3.7c-5.7,2.5-11.8,3.9-18.1,3.9h-80.2l18.5-53.4c1.3-3.7,0.7-7.8-1.6-10.9
		c-2.3-3.2-5.9-5.1-9.8-5.1H74.9l10.2-28l1,0.1l22.8-3.7c0,0-1.4-0.8-1.3-19.6C92.9,309.2,86.9,310.6,80,313.4L80,313.4z"/>
	<g>
		<path class="st3" d="M243.4,426.7c-1.6,1.6-3.4,3.1-5.4,4.2c-2,1.1-4.1,2.1-6.2,3c-4.3,1.6-8.8,2.6-13.4,2.9
			c-9.2,0.2-18.3,0.3-27.4,0.3l-27.4,0.2c-9.1,0.1-18.3,0.1-27.4,0.1h-1.4l0.5-1.3l12-35l6-17.5l0.4-1.1c0.1-0.3,0.2-0.7,0.3-1
			c0.2-0.7,0.2-1.4,0.3-2.1c0-1.4-0.2-2.8-0.6-4.1c-0.9-2.6-2.9-4.9-5.5-6.1c-1.3-0.6-2.6-1-4-1.1c-0.7,0-1.5,0-2.2,0l-2.3,0l-9.2,0
			l-18.5,0c-12.3,0-24.7-0.2-37-0.3H74V367l0.1-14.8l0.2-14.8c0-1.2,0-2.5,0.2-3.7c0.1-0.6,0.2-1.2,0.3-1.9c0.1-0.6,0.3-1.2,0.4-1.8
			c0.7-2.4,1.7-4.7,3.1-6.8c2.8-4.1,7-7.2,11.6-8.8c-8.5,3.1-15.1,11.1-15.1,21.4V367h68.5c3.9,0,7.6,1.9,9.8,5.1
			c2.3,3.2,2.8,7.3,1.6,10.9l-18.1,52.4h-0.3l0.2,0.3l-0.2,0.7h0.7l0.2,0.3l0.1-0.3h79.1c7.8,0,15.4-2,22.1-5.9
			C240.4,429.4,242,428.1,243.4,426.7z"/>
	</g>
	<linearGradient id="SVGID_5_" gradientUnits="userSpaceOnUse" x1="83.645" y1="371.8699" x2="249.9013" y2="371.8699">
		<stop  offset="0" style="stop-color:#FF52D2"/>
		<stop  offset="0.3115" style="stop-color:#E43DD5"/>
		<stop  offset="1" style="stop-color:#AC12DA"/>
	</linearGradient>
	<path class="st5" d="M243.4,426.7L243.4,426.7C243.4,426.8,243.4,426.8,243.4,426.7c-1.1,0.5-2.1,0.9-3.2,1.3
		c-4.7,1.7-9.8,2.6-14.9,2.6h-80.2l18.5-53.4c0.1-0.2,0.1-0.3,0.2-0.5c0.1-0.5,0.3-1,0.3-1.5c0.4-2.2,0.1-4.5-0.7-6.5
		c-0.2-0.4-0.4-0.9-0.6-1.3c-0.2-0.4-0.5-0.8-0.8-1.2c-2.3-3.2-5.9-5.1-9.8-5.1H83.6v-31.1c0-6.3,2.4-11.7,6.2-15.7
		c5.5-2,11.8-1.9,17.7,1c0.5,0.2,0.9,0.5,1.4,0.7l96.3,55.6l33,19l0.4,0.2C251.9,398.7,253.5,416.6,243.4,426.7z"/>
	<linearGradient id="SVGID_6_" gradientUnits="userSpaceOnUse" x1="74.7524" y1="374.7646" x2="249.9013" y2="374.7646">
		<stop  offset="0" style="stop-color:#FFFFFF"/>
		<stop  offset="0.2147" style="stop-color:#C6C6C6"/>
		<stop  offset="0.7611" style="stop-color:#393939"/>
		<stop  offset="1" style="stop-color:#000000"/>
	</linearGradient>
	<path class="st6" d="M243.4,426.7L243.4,426.7C243.4,426.8,243.4,426.8,243.4,426.7c-0.1,0.1-0.2,0.2-0.3,0.3
		c-0.1,0.1-0.3,0.3-0.4,0.4c-0.1,0.1-0.1,0.1-0.2,0.2c-0.3,0.2-0.5,0.5-0.8,0.7c-1,0.8-2,1.5-3.2,2.2c-1.5,0.8-3,1.6-4.5,2.3
		c-5.5,2.4-11.5,3.7-17.6,3.7h-80.2l0.2-0.7l0.1-0.3l18.1-52.4c1.3-3.7,0.7-7.8-1.6-10.9c-2.3-3.2-5.9-5.1-9.8-5.1H74.8v-31.1
		c0-10.3,6.6-18.4,15.1-21.4c5.5-2,11.8-1.9,17.7,1c0.5,0.2,0.9,0.5,1.4,0.7l96.3,55.6l33,19l0.4,0.2
		C251.9,398.7,253.5,416.6,243.4,426.7z"/>
	<linearGradient id="SVGID_7_" gradientUnits="userSpaceOnUse" x1="72.9281" y1="334.9155" x2="210.8874" y2="449.0424">
		<stop  offset="0" style="stop-color:#FFFFFF"/>
		<stop  offset="0.2147" style="stop-color:#C6C6C6"/>
		<stop  offset="0.7611" style="stop-color:#393939"/>
		<stop  offset="1" style="stop-color:#000000"/>
	</linearGradient>
	<path class="st7" d="M243.4,426.7c-1.4,1.4-3,2.7-4.9,3.7c-6.7,3.9-14.4,5.9-22.1,5.9h-80.2l0.2-0.7l0.1-0.3l18.1-52.4
		c1.3-3.7,0.7-7.8-1.6-10.9c-2.3-3.2-5.9-5.1-9.8-5.1H74.8v-31.1c0-10.3,6.6-18.4,15.1-21.4c-3.8,4-6.2,9.4-6.2,15.7v31.1h68.5
		c3.9,0,7.6,1.9,9.8,5.1c2.3,3.2,2.8,7.3,1.6,10.9l-18.5,53.4h80.2C231.5,430.6,237.7,429.3,243.4,426.7z"/>
	<path class="st8" d="M238.2,390.8c-10.1,10.9-24.5,25.1-41.7,39.8c-2.1,1.8-4.2,3.6-6.4,5.4c-0.2,0.1-0.3,0.3-0.5,0.4
		c-0.3,0.2-0.6,0.5-0.8,0.7c-1.9,1.6-3.8,3.1-5.8,4.7c-6.2,5-12.7,9.9-19.5,14.7l0,0c-2.9,2.1-5.9,4.2-8.9,6.2c0,0,0,0,0,0
		c-0.4,0.3-0.8,0.5-1.2,0.8h0c-23.3,15.7-48.7,29.1-73.9,36c-2.9-3.8-4.7-8.5-4.7-13.9v-17.3c11.6-2.7,22.6-6.7,33-11.7
		c0.3-0.2,0.7-0.3,1-0.5c2.4-1.2,4.8-2.4,7.1-3.6h0c6.2-3.3,12.2-6.9,17.9-10.7c2.1-1.4,4.2-2.9,6.3-4.4c0.5-0.3,0.9-0.7,1.4-1
		c0.2-0.1,0.4-0.3,0.6-0.4c2.4-1.8,4.7-3.6,7-5.4c24.4-19.3,43.5-41.7,56.1-58.8L238.2,390.8z"/>
</g>
</svg>
