<?xml version="1.0" encoding="utf-8"?>
<!-- Generator: Adobe Illustrator 24.0.0, SVG Export Plug-In . SVG Version: 6.00 Build 0)  -->
<svg version="1.1" id="图层_1" xmlns="http://www.w3.org/2000/svg" xmlns:xlink="http://www.w3.org/1999/xlink" x="0px" y="0px"
	 viewBox="0 0 2000 2000" style="enable-background:new 0 0 2000 2000;" xml:space="preserve">
<style type="text/css">
	.st0{fill:url(#SVGID_1_);}
	.st1{fill:url(#SVGID_2_);}
	.st2{fill:url(#SVGID_3_);}
	.st3{fill:#FFFFFF;}
	.st4{fill:url(#SVGID_4_);}
	.st5{fill:url(#SVGID_5_);}
	.st6{fill:url(#SVGID_6_);}
	.st7{fill:url(#SVGID_7_);}
	.st8{opacity:0.2;fill:#FFFFFF;}
	.st9{fill:url(#SVGID_8_);}
	.st10{fill:url(#SVGID_9_);}
	.st11{opacity:0.5;fill:url(#SVGID_10_);}
	.st12{fill:url(#SVGID_11_);}
	.st13{fill:url(#SVGID_12_);}
	.st14{fill:url(#SVGID_13_);}
	.st15{fill:url(#SVGID_14_);}
	.st16{opacity:0.8;fill:url(#SVGID_15_);}
</style>
<g>
	<g>
		<g id="nameDefaultGroup_1_">
			<path d="M873.9,994.7h29.9c7.5,0,13.8,2.3,19,6.9c5.5,4.4,8.2,9.7,8.2,16.1l0,0V1184c0,6.3-2.7,11.7-8.2,16.1
				c-5.2,4.1-11.5,6.2-19,6.2l0,0H791.2c-7.5,0-13.8-2.1-19-6.2c-5.5-4.4-8.2-9.7-8.2-16.1l0,0v-166.4c0-6.3,2.7-11.7,8.2-16.1
				c5.2-4.6,11.5-6.9,19-6.9l0,0h29.4l5.2-17.1h52.8L873.9,994.7 M810.3,1114.7h74.4v-27h-74.4V1114.7 M810.3,1054.1h74.4v-26.3
				h-74.4V1054.1 M884.7,1174.2v-25.9h-74.4v25.9H884.7 M1130.9,1095.7c9.8,0,14.7,4.3,14.7,12.8l0,0v84.6c0,4.1-1.2,7.4-3.5,9.8
				c-2.3,2.2-6.1,3.3-11.3,3.3l0,0h-84.4c-5.2,0-8.9-1.1-11.3-3.3c-2.6-2.4-3.9-5.7-3.9-9.8l0,0v-84.6c0-4.1,1-7.3,3-9.5
				c2-2.2,5.6-3.3,10.8-3.3l0,0H1130.9 M1045.7,998.7v-17.1h35.5v17.1h14.7v-17.1h36.4v17.1h13.4v30.6h-13.4v26.3h13.4v31.7h-114.2
				v-31.7h14.3v-26.3h-14.3v-30.6H1045.7 M965.6,1109.6l11.7-2.9V1076l-11.7,2.9v-29.2l11.7-2.9v-19c0-3.4-0.6-5.7-1.7-6.9
				c-0.9-1.2-3.2-1.8-6.9-1.8l0,0h-3v-37.6h19c10.7,0,18.8,2.1,24.2,6.2c5.5,4.4,8.2,11.8,8.2,22.3l0,0v28.5l7.4-1.8v29.2l-7.4,1.8
				v111.3c0,10.2-2.7,17.3-8.2,21.2c-5.5,4.1-13.6,6.2-24.2,6.2l0,0h-19v-36.8h2.6c3.8,0,6.2-0.6,7.4-1.8c1.2-1.2,1.7-3.5,1.7-6.9
				l0,0v-25.5l-11.7,2.6V1109.6 M1109.7,1174.5v-47.4h-42.4v47.4H1109.7 M1088.5,1139.5c3.8,0,7.1,1.1,10,3.3c2.9,2.2,4.3,5,4.3,8.4
				l0,0c0,3.4-1.4,6.2-4.3,8.4c-2.9,2.4-6.2,3.6-10,3.6l0,0c-4,0-7.4-1.2-10-3.6c-2.6-2.2-3.9-5-3.9-8.4l0,0c0-3.4,1.3-6.2,3.9-8.4
				C1081.2,1140.6,1084.5,1139.5,1088.5,1139.5L1088.5,1139.5 M1081.2,1055.6h14.7v-26.3h-14.7V1055.6"/>
		</g>
	</g>
	<g>
		<g id="sloganDefaultGroup_1_">
			<path d="M804.2,866c-1.4,1.7-3.2,3.6-5.2,5.6c-2,2-4.2,4-6.5,6.1c-2.3,2-4.8,3.9-7.4,5.6c-2.9,2-5.6,3.8-8.2,5.2l0,0l-3-4.3
				c3.2-1.4,6.1-3.2,8.7-5.2c2.9-1.7,5.5-3.6,7.8-5.6c2.3-2,4.5-4.2,6.5-6.5c2-2,3.8-4,5.2-6.1l0,0h4.3c3.2,4.3,7.1,8.5,11.7,12.5
				c4.6,4,10,7.6,16,10.8l0,0l-3,4.3c-6.3-3.8-11.7-7.5-16-11.3C810.7,873.5,807.1,869.8,804.2,866L804.2,866 M807.7,911.5h23.8v4.8
				h-55.4v-4.8h9.1v-23.4h4.8v23.4h12.5v-33.3h5.2V892h18.2v4.8h-18.2V911.5 M906.3,911v4.8h-57.1V911h19v-49.8h5.2V911h8.7v-49.8
				h5.2V911H906.3 M903.7,873.4c-0.6,2-1.3,4.2-2.2,6.5c-0.6,2.3-1.3,4.6-2.2,6.9s-1.7,4.6-2.6,6.9c-0.9,2.3-1.9,4.5-3,6.5l0,0
				l-4.8-1.7c1.2-1.7,2.2-3.8,3-6.1c0.9-2.3,1.7-4.6,2.6-6.9c0.9-2.6,1.7-5,2.6-7.4c0.6-2.3,1.2-4.5,1.7-6.5l0,0L903.7,873.4
				 M861.3,900.2c-0.6-2-1.3-4.3-2.2-6.9c-0.9-2.3-1.7-4.6-2.6-6.9c-0.9-2.3-1.7-4.5-2.6-6.5c-0.9-2.3-1.7-4.2-2.6-5.6l0,0l4.8-2.2
				c0.6,1.4,1.3,3.3,2.2,5.6c1.2,2,2.2,4.3,3,6.9c0.9,2.3,1.7,4.6,2.6,6.9c0.9,2.6,1.6,4.8,2.2,6.5l0,0L861.3,900.2 M984.2,866.5
				v3.9h-56.7v-3.9h26.4c-0.3-1.2-0.6-2.2-0.9-3c-0.3-1.2-0.6-2-0.9-2.6l0,0l4.3-0.9c0.3,0.9,0.6,1.9,0.9,3c0.6,1.2,1,2.3,1.3,3.5
				l0,0H984.2 M973.8,874.7v12.1h-36.4v-12.1H973.8 M969.1,878.1h-26.8v5.2h26.8V878.1 M931.4,891.1h48.5V911c0,1.4-0.1,2.6-0.4,3.5
				c-0.3,0.9-0.6,1.6-0.9,2.2c-0.6,0.6-1.3,0.9-2.2,0.9c-0.9,0.3-2,0.6-3.5,0.9l0,0l-4.8,0.4l-1.7-4.8h4.8c0.9-0.3,1.4-0.4,1.7-0.4
				c0.6,0,1-0.1,1.3-0.4c0.3-0.3,0.4-0.6,0.4-0.9c0.3-0.6,0.4-1.2,0.4-1.7l0,0v-16h-38.9v24.2h-4.8V891.1 M967.8,911.5h-24.2v-12.5
				h24.2V911.5 M963,902.8h-14.7v4.8H963V902.8 M1008.5,883.3c-0.6,0-1,0-1.3,0c-0.6,0.3-1.2,0.4-1.7,0.4l0,0l-0.9-4.3
				c0.6-0.3,1.2-0.6,1.7-0.9c0.3-0.3,0.6-0.7,0.9-1.3l0,0c0.6-0.9,1.3-2,2.2-3.5c0.9-1.2,1.7-2.5,2.6-3.9c0.9-1.7,1.7-3.3,2.6-4.8
				c0.9-1.7,1.6-3.3,2.2-4.8l0,0l3.9,1.7c-0.6,1.4-1.3,3-2.2,4.8c-0.9,1.4-1.7,2.9-2.6,4.3c-0.9,1.4-1.7,2.9-2.6,4.3
				c-0.9,1.2-1.6,2.3-2.2,3.5l0,0c0.3,0,0.7-0.1,1.3-0.4c0.6,0,1.3,0,2.2,0c0.9,0,1.6,0,2.2,0c0.9,0,1.6,0,2.2,0l0,0
				c0.9-1.4,1.6-2.7,2.2-3.9c0.9-1.2,1.4-2.3,1.7-3.5l0,0l3.9,2.2c-0.9,1.7-1.9,3.5-3,5.2c-1.2,2-2.3,4-3.5,6.1
				c-1.4,1.7-2.7,3.5-3.9,5.2c-1.2,2-2.2,3.6-3,4.8l0,0l12.1-1.7l0.4,4.3c-0.3,0-0.9,0.1-1.7,0.4c-0.9,0-1.7,0-2.6,0
				c-1.2,0.3-2.3,0.4-3.5,0.4c-1.2,0.3-2.2,0.4-3,0.4c-1.2,0.3-2,0.4-2.6,0.4c-0.9,0.3-1.4,0.4-1.7,0.4l0,0c-0.9,0-1.6,0.1-2.2,0.4
				c-0.3,0-0.9,0.1-1.7,0.4l0,0l-1.3-4.8c0.9-0.3,1.6-0.6,2.2-0.9c0.6-0.6,1.2-1.2,1.7-1.7l0,0c1.2-1.4,2.3-3,3.5-4.8
				c1.2-1.7,2.3-3.5,3.5-5.2l0,0c-0.6,0-1.3,0-2.2,0c-0.9,0-1.6,0-2.2,0c-0.9,0-1.6,0.1-2.2,0.4
				C1009.2,883.3,1008.8,883.3,1008.5,883.3L1008.5,883.3 M1050,903.7c2,2,4.2,3.9,6.5,5.6c2.3,1.7,4.9,3.5,7.8,5.2l0,0l-3,4.3
				c-2.9-1.7-5.5-3.6-7.8-5.6c-2.3-2-4.5-4-6.5-6.1l0,0c-2,2.3-4.3,4.5-6.9,6.5c-2.6,2-5.6,3.9-9.1,5.6l0,0l-3-3.5
				c3.5-2,6.5-3.9,9.1-5.6c2.6-2,4.9-4.2,6.9-6.5l0,0c-1.7-2.3-3.3-4.6-4.8-6.9c-1.4-2.6-2.6-5.5-3.5-8.7l0,0
				c-0.3,2.9-0.7,5.6-1.3,8.2c-0.6,2.6-1.3,5-2.2,7.4c-0.9,2.6-2,5-3.5,7.4c-1.4,2.3-3.2,4.8-5.2,7.4l0,0l-3.9-2.6
				c2.3-2.9,4.2-5.6,5.6-8.2c1.7-2.6,3-5.3,3.9-8.2s1.4-5.9,1.7-9.1c0.6-3.2,0.9-6.6,0.9-10.4l0,0c0-0.6,0-1.3,0-2.2
				c0.3-1.2,0.4-2.2,0.4-3c0-1.2,0-2.2,0-3c0-1.2,0-2,0-2.6l0,0h-5.2v-4.8h28.1v4.8c-0.6,2-1.3,4-2.2,6.1c-0.6,2-1.4,3.9-2.6,5.6
				l0,0h8.2v4.3c-1.2,3.8-2.5,7.1-3.9,10C1053.6,898.2,1052,901.1,1050,903.7L1050,903.7 M1036.2,876.4c1.2,4.9,2.6,9.4,4.3,13.4
				c1.7,3.8,3.9,7.2,6.5,10.4l0,0c1.4-2,2.9-4.3,4.3-6.9c1.2-2.6,2.2-5.3,3-8.2l0,0h-8.2v-3.9c0.9-1.7,1.7-3.8,2.6-6.1
				c0.9-2,1.6-4,2.2-6.1l0,0h-14.3c0,0.9,0,2,0,3.5C1036.3,873.7,1036.2,875,1036.2,876.4L1036.2,876.4 M1024,909.3
				c-1.2,0.3-2.6,0.7-4.3,1.3c-1.7,0.6-3.5,1-5.2,1.3c-1.7,0.6-3.6,1-5.6,1.3c-1.7,0.3-3.2,0.6-4.3,0.9l0,0l-0.4-4.8
				c1.2,0,2.6-0.1,4.3-0.4c1.7-0.6,3.6-1,5.6-1.3c1.7-0.6,3.5-1,5.2-1.3c1.7-0.6,3.3-1,4.8-1.3l0,0v2.2V909.3 M1113.2,871.2
				c0.6,4.6,1.4,8.9,2.6,13c1.4,4,3.3,7.9,5.6,11.7c2,3.5,4.6,6.8,7.8,10c2.9,3.2,6.3,6.1,10.4,8.7l0,0l-3.9,4.8
				c-6.1-5.2-11.1-10.5-15.1-16c-4-5.8-7.1-11.8-9.1-18.2l0,0c-1.7,6.3-4.6,12.3-8.7,17.7c-4,5.5-9.4,10.8-16,16l0,0l-3.5-4.3
				c4.3-3.5,8.1-6.8,11.3-10c3.2-3.5,5.8-7.1,7.8-10.8c2-3.8,3.6-7.8,4.8-12.1c0.9-4.3,1.3-8.9,1.3-13.8l0,0c0-0.3,0-0.7,0-1.3
				c0-0.9,0-1.6,0-2.2c0.3-0.6,0.4-1.2,0.4-1.7c0-0.6,0-1,0-1.3l0,0l4.8,0.4c0,0,0,0.4,0,1.3c0,0.6,0,1.3,0,2.2s0,1.7,0,2.6
				c-0.3,0.9-0.4,1.4-0.4,1.7l0,0c0,0.3,0,0.6,0,0.9C1113.2,870.6,1113.2,870.9,1113.2,871.2L1113.2,871.2 M1212.7,877.7h-16v31.2
				c0,1.7-0.1,3.2-0.4,4.3c-0.3,1.2-0.9,2.2-1.7,3c-0.9,0.6-2,1-3.5,1.3c-1.7,0.3-3.8,0.6-6.1,0.9l0,0l-4.8,0.4l-1.7-5.6l5.6-0.4
				c1.7,0,3-0.1,3.9-0.4c0.9,0,1.6-0.1,2.2-0.4c0.6-0.6,0.9-1.2,0.9-1.7c0.3-0.9,0.4-1.9,0.4-3l0,0v-26c-2,2.9-4,5.8-6.1,8.7
				c-2.3,2.9-4.8,5.5-7.4,7.8c-2.6,2.6-5.5,5-8.7,7.4c-3.2,2.3-6.6,4.6-10.4,6.9l0,0l-3.5-4.8c7.8-4.3,14.3-8.9,19.5-13.8
				c5.2-4.6,9.5-9.8,13-15.6l0,0h-29V873h32.5v-12.1h5.2V873h16V877.7 M1291.9,881.2v4.3H1253v-4.3h10V873h-8.2v-4.3h8.2v-7.4h4.3
				v7.4h9.5v-7.4h4.8v7.4h7.8v4.3h-7.8v8.2H1291.9 M1256,865.6c-2.9,3.5-5.8,6.5-8.7,9.1l0,0c0.9,2,1.6,4,2.2,6.1
				c0.3,2,0.6,4.2,0.9,6.5s0.6,4.9,0.9,7.8c0,2.9,0,6.1,0,9.5l0,0c0,2.6-0.1,4.8-0.4,6.5c-0.3,1.4-0.7,2.7-1.3,3.9
				c-0.6,0.9-1.4,1.6-2.6,2.2c-1.2,0.3-2.6,0.6-4.3,0.9l0,0h-3.5l-1.7-4.8l4.3-0.4c1.2,0,2-0.1,2.6-0.4c0.9-0.3,1.4-0.7,1.7-1.3
				c0.3-0.9,0.4-1.9,0.4-3c0.3-1.4,0.4-3.2,0.4-5.2l0,0c0-2.3-0.1-4.3-0.4-6.1c0-1.7,0-3.5,0-5.2l0,0c-1.7,2.3-3.5,4.3-5.2,6.1
				c-1.7,2-3.6,3.8-5.6,5.2l0,0l-3-3.5c0.9-0.9,1.9-1.9,3-3c1.2-0.9,2.3-1.9,3.5-3c1.2-1.2,2.3-2.5,3.5-3.9c1.2-1.2,2.2-2.5,3-3.9
				l0,0c-0.6-2.3-1.3-4.8-2.2-7.4l0,0c-1.2,1.2-2.3,2.3-3.5,3.5c-1.4,0.9-2.7,1.9-3.9,3l0,0l-3-3.9c1.4-1.2,2.9-2.3,4.3-3.5
				c1.4-1.2,2.9-2.3,4.3-3.5l0,0c-0.9-1.7-1.7-3.3-2.6-4.8c-0.9-1.7-1.9-3.5-3-5.2l0,0l3.9-2.2c1.2,1.4,2.2,2.9,3,4.3
				c0.9,1.4,1.6,2.9,2.2,4.3l0,0c1.4-1.2,2.7-2.5,3.9-3.9c1.4-1.4,2.6-2.9,3.5-4.3l0,0L1256,865.6 M1267.2,881.2h9.5V873h-9.5V881.2
				 M1258.2,890.7h27.7v28.1h-4.3v-3h-18.6v3.5h-4.8V890.7 M1262.9,895v5.6h18.6V895H1262.9 M1281.5,911.5V905h-18.6v6.5H1281.5
				 M1365.9,888.1h-28.1v-21.6h12.1v-6.1l3.9,0.4v5.6h12.1V888.1 M1336.9,906.7c-0.9,0-1.6,0.1-2.2,0.4c-0.9,0-1.9,0.1-3,0.4l0,0
				v11.3h-3.9V908c-2.9,0.6-5.8,1-8.7,1.3c-3.2,0.3-5.6,0.6-7.4,0.9l0,0l-0.4-4.3l4.8-0.4v-36.8h-3.5v-4.3h22.9v4.3h-3.9v34.2
				c2-0.3,3.6-0.4,4.8-0.4l0,0L1336.9,906.7 M1320,868.6v9.1h7.8v-9.1H1320 M1341.7,870.4v5.2h8.2v-5.2H1341.7 M1353.8,870.4v5.2
				h8.2v-5.2H1353.8 M1341.7,884.2h8.2V879h-8.2V884.2 M1362,884.2V879h-8.2v5.2H1362 M1320,891.1h7.8V882h-7.8V891.1 M1345.6,896.8
				l-0.4,4.3h19.5c0,0.3,0,0.9,0,1.7c-0.3,1.2-0.4,2.2-0.4,3c0,1.2-0.1,2.2-0.4,3c0,0.9,0,1.4,0,1.7l0,0c-0.3,1.4-0.6,2.7-0.9,3.9
				c-0.6,0.9-1.2,1.6-1.7,2.2c-0.9,0.6-2,1-3.5,1.3c-1.2,0.3-2.7,0.4-4.8,0.4l0,0l-3.9,0.4l-1.7-4.8h5.2c1.4-0.3,2.6-0.4,3.5-0.4
				c0.6-0.3,1.2-0.6,1.7-0.9c0.6-0.3,1-0.7,1.3-1.3c0.3-0.3,0.4-0.9,0.4-1.7l0,0c0-0.6,0.1-1.4,0.4-2.6c0-0.9,0-1.6,0-2.2l0,0h-19.5
				l1.3-8.2h-6.9v-3.9h35.1v3.9H1345.6 M1320,904.5c1.4,0,2.7-0.1,3.9-0.4c1.4,0,2.7-0.1,3.9-0.4l0,0V895h-7.8V904.5 M1420.9,872.1
				h-29.4v-4.3h12.5c-0.3-1.2-0.6-2.5-0.9-3.9c-0.6-1.2-1-2.2-1.3-3l0,0l4.3-0.9c0.3,0.3,0.6,0.9,0.9,1.7c0.3,0.6,0.4,1.2,0.4,1.7
				c0.3,0.9,0.6,1.6,0.9,2.2c0.3,0.9,0.6,1.6,0.9,2.2l0,0h11.7V872.1 M1429.5,880.3c0,4.6-0.3,8.7-0.9,12.1c-0.6,3.8-1.3,7.1-2.2,10
				c-0.9,2.9-2.2,5.6-3.9,8.2c-1.4,2.6-3.3,5.3-5.6,8.2l0,0l-3.9-2.6c2-2.9,3.9-5.5,5.6-7.8c1.4-2.6,2.6-5.2,3.5-7.8
				c0.9-2.6,1.6-5.6,2.2-9.1c0.3-3.2,0.6-6.9,0.9-11.3l0,0h-6.1v-4.8h6.1v-0.4c0.3-0.9,0.4-2.2,0.4-3.9c0-1.7,0-3.3,0-4.8l0,0
				c0-2,0-4,0-6.1l0,0h4.3l-0.4,14.7v0.4h17.3v4.8H1429.5 M1441.6,874.3c-0.6-0.9-1.2-1.7-1.7-2.6c-0.9-0.9-1.6-1.7-2.2-2.6
				c-0.9-0.9-1.7-1.7-2.6-2.6c-0.6-0.6-1.2-1.2-1.7-1.7l0,0l3-3c0.6,0.6,1.2,1.3,1.7,2.2c0.9,0.6,1.7,1.3,2.6,2.2
				c0.9,0.9,1.6,1.7,2.2,2.6c0.6,0.9,1.2,1.6,1.7,2.2l0,0L1441.6,874.3 M1408.7,894.2v16.4c0,1.4-0.1,2.6-0.4,3.5
				c-0.3,0.9-0.7,1.6-1.3,2.2c-0.6,0.6-1.3,1-2.2,1.3c-0.9,0.3-2,0.4-3.5,0.4l0,0h-2.6l-1.7-4.3l3.5-0.4c1.4,0,2.5-0.3,3-0.9
				c0.3-0.6,0.4-1.6,0.4-3l0,0v-15.1h-9.1v-16h22.1v16H1408.7 M1447.3,905.8c0,1.2-0.1,2.2-0.4,3c0,1.2-0.1,2.5-0.4,3.9l0,0
				c-0.3,1.4-0.9,2.6-1.7,3.5c-0.9,0.9-2.2,1.3-3.9,1.3l0,0h-3c-1.7,0-3-0.6-3.9-1.7c-0.9-0.9-1.3-2.5-1.3-4.8l0,0v-29.9l4.3,0.4
				v28.6c0,1.2,0.1,1.9,0.4,2.2c0.6,0.6,1.3,0.9,2.2,0.9l0,0h0.9c0.9,0,1.4-0.3,1.7-0.9c0.6-0.3,0.9-1,0.9-2.2l0,0
				c0.3-1.2,0.4-2.2,0.4-3c0-0.9,0.1-1.9,0.4-3l0,0L1447.3,905.8 M1398.8,890.3h13.8V882h-13.8V890.3 M1416.1,908.9
				c0-0.9-0.3-1.7-0.9-2.6c-0.3-0.9-0.7-1.7-1.3-2.6c-0.6-0.9-1.2-1.7-1.7-2.6c-0.6-0.9-1-1.4-1.3-1.7l0,0l3.5-2.2
				c0.3,0.6,0.7,1.2,1.3,1.7c0.6,0.9,1,1.7,1.3,2.6c0.6,0.9,1.2,1.6,1.7,2.2c0.3,0.9,0.6,1.6,0.9,2.2l0,0L1416.1,908.9
				 M1400.5,898.5c-1.2,2.9-2.5,5.8-3.9,8.7c-1.4,2.9-2.7,5.5-3.9,7.8l0,0l-3.9-2.2c0.9-1.2,1.6-2.3,2.2-3.5
				c0.6-1.4,1.3-2.7,2.2-3.9c0.6-1.4,1.2-2.9,1.7-4.3c0.6-1.4,1-2.7,1.3-3.9l0,0L1400.5,898.5 M1521.3,911v4.8h-58V911h25.1v-50.2
				h4.8V879h23.8v4.8h-23.8V911H1521.3 M1591.8,868.2v50.6h-5.2v-3.9h-32.9v4.3h-5.2v-51.1h15.1c0.6-1.4,1.2-2.9,1.7-4.3
				c0.6-1.7,1-3.2,1.3-4.3l0,0l5.6,0.9c-0.3,1.2-0.7,2.5-1.3,3.9c-0.6,1.4-1.2,2.7-1.7,3.9l0,0H1591.8 M1553.7,873v9.5h32.9V873
				H1553.7 M1553.7,886.8v9.1h32.9v-9.1H1553.7 M1586.6,910.2v-9.5h-32.9v9.5H1586.6 M1677,881.2v4.3h-38.9v-4.3h10V873h-8.2v-4.3
				h8.2v-7.4h4.3v7.4h9.5v-7.4h4.8v7.4h7.8v4.3h-7.8v8.2H1677 M1641.1,865.6c-2.9,3.5-5.8,6.5-8.7,9.1l0,0c0.9,2,1.6,4,2.2,6.1
				c0.3,2,0.6,4.2,0.9,6.5c0.3,2.3,0.6,4.9,0.9,7.8c0,2.9,0,6.1,0,9.5l0,0c0,2.6-0.1,4.8-0.4,6.5c-0.3,1.4-0.7,2.7-1.3,3.9
				c-0.6,0.9-1.4,1.6-2.6,2.2c-1.2,0.3-2.6,0.6-4.3,0.9l0,0h-3.5l-1.7-4.8l4.3-0.4c1.2,0,2-0.1,2.6-0.4c0.9-0.3,1.4-0.7,1.7-1.3
				c0.3-0.9,0.4-1.9,0.4-3c0.3-1.4,0.4-3.2,0.4-5.2l0,0c0-2.3-0.1-4.3-0.4-6.1c0-1.7,0-3.5,0-5.2l0,0c-1.7,2.3-3.5,4.3-5.2,6.1
				c-1.7,2-3.6,3.8-5.6,5.2l0,0l-3-3.5c0.9-0.9,1.9-1.9,3-3c1.2-0.9,2.3-1.9,3.5-3c1.2-1.2,2.3-2.5,3.5-3.9c1.2-1.2,2.2-2.5,3-3.9
				l0,0c-0.6-2.3-1.3-4.8-2.2-7.4l0,0c-1.2,1.2-2.3,2.3-3.5,3.5c-1.4,0.9-2.7,1.9-3.9,3l0,0l-3-3.9c1.4-1.2,2.9-2.3,4.3-3.5
				s2.9-2.3,4.3-3.5l0,0c-0.9-1.7-1.7-3.3-2.6-4.8c-0.9-1.7-1.9-3.5-3-5.2l0,0l3.9-2.2c1.2,1.4,2.2,2.9,3,4.3
				c0.9,1.4,1.6,2.9,2.2,4.3l0,0c1.4-1.2,2.7-2.5,3.9-3.9c1.4-1.4,2.6-2.9,3.5-4.3l0,0L1641.1,865.6 M1652.4,881.2h9.5V873h-9.5
				V881.2 M1643.3,890.7h27.7v28.1h-4.3v-3h-18.6v3.5h-4.8V890.7 M1648.1,895v5.6h18.6V895H1648.1 M1666.7,911.5V905h-18.6v6.5
				H1666.7 M1750.2,864.3v45.9c0,1.4-0.1,2.7-0.4,3.9c0,0.9-0.4,1.7-1.3,2.6c-0.6,0.6-1.6,1-3,1.3c-1.2,0.3-2.7,0.4-4.8,0.4l0,0
				l-3.9,0.4l-1.7-4.8l4.8-0.4c1.2,0,2.2-0.1,3-0.4c0.9,0,1.4-0.1,1.7-0.4c0.6-0.6,0.9-1.2,0.9-1.7c0.3-0.6,0.4-1.4,0.4-2.6l0,0
				v-39.8h-40.2v50.2h-4.3v-54.5H1750.2 M1722.5,904.5c-0.6-1.2-1.2-2.6-1.7-4.3c-0.6-1.4-1.3-3.2-2.2-5.2l0,0
				c-1.4,2.9-2.9,5.6-4.3,8.2c-1.4,2.6-2.9,5-4.3,7.4l0,0l-3.9-2.6c2-2.6,3.8-5.5,5.2-8.7c1.7-2.9,3.3-5.9,4.8-9.1l0,0
				c-1.2-2.9-2.5-5.5-3.9-7.8c-1.2-2.6-2.3-4.6-3.5-6.1l0,0l3.5-2.2c0.9,1.4,1.9,3,3,4.8c1.2,2,2.3,4,3.5,6.1l0,0
				c0.9-2,1.6-4,2.2-6.1c0.9-2.3,1.7-4.5,2.6-6.5l0,0l3.9,1.3c-0.9,2.9-1.9,5.6-3,8.2c-0.9,2.9-2,5.6-3.5,8.2l0,0
				c1.2,2.3,2.2,4.5,3,6.5c0.9,2,1.6,3.8,2.2,5.2l0,0L1722.5,904.5 M1741.5,909.3c-0.6-2-1.4-4.2-2.6-6.5c-1.2-2.3-2.3-4.8-3.5-7.4
				l0,0c-2.6,5.5-5.8,10.8-9.5,16l0,0l-3.5-2.6c2-2.9,3.9-5.9,5.6-9.1c1.7-2.9,3.3-5.9,4.8-9.1l0,0c-1.2-2.3-2.3-4.5-3.5-6.5
				c-1.2-2-2.3-3.8-3.5-5.2l0,0l3.5-2.6c0.9,1.2,1.9,2.6,3,4.3c0.9,1.4,1.7,3,2.6,4.8l0,0c2-4,3.6-8.2,4.8-12.5l0,0l4.3,1.7
				c-0.9,2.6-1.9,5.2-3,7.8c-0.9,2.9-2,5.6-3.5,8.2l0,0c1.7,2.9,3.2,5.6,4.3,8.2c1.4,2.9,2.5,5.3,3,7.4l0,0L1741.5,909.3"/>
		</g>
	</g>
	<linearGradient id="SVGID_1_" gradientUnits="userSpaceOnUse" x1="351.1002" y1="894.6782" x2="406.8364" y2="1264.3954">
		<stop  offset="0.1846" style="stop-color:#00B7FF"/>
		<stop  offset="0.8714" style="stop-color:#1AAEFB"/>
		<stop  offset="1" style="stop-color:#1FACFA"/>
		<stop  offset="1" style="stop-color:#20ACFA"/>
	</linearGradient>
	<path class="st0" d="M511.7,1128.8l-165.6,95.6c-23.6,13.6-51.3,6-66.1-13c-6.6-8.5-10.6-19.2-10.6-31.3v-167
		c0-10.2,2.8-19.7,7.6-27.8c9.4-7.8,21.5-12.5,34.6-12.5h74.2l-41.5,119.9c-1.9,5.5-2,11.3-0.3,16.8c0.4,1.5,1,3,1.8,4.4
		c0.6,1.2,1.3,2.3,2.1,3.4c1,1.3,2,2.6,3.2,3.7c1.1,1.1,2.4,2.1,3.7,3c0,0,0,0,0,0c4.4,3,9.7,4.7,15.2,4.7H511.7z"/>
	<linearGradient id="SVGID_2_" gradientUnits="userSpaceOnUse" x1="419.2469" y1="978.5483" x2="357.8066" y2="1285.7494">
		<stop  offset="0.1846" style="stop-color:#00D0FF"/>
		<stop  offset="0.7849" style="stop-color:#16B6FB"/>
		<stop  offset="1" style="stop-color:#1FACFA"/>
		<stop  offset="1" style="stop-color:#20ACFA"/>
	</linearGradient>
	<path class="st1" d="M536,1114.8l-24.2,14l-165.6,95.6c-23.6,13.6-51.3,6-66.1-13c-6.6-8.5-10.6-19.2-10.6-31.3v-167
		c0-10.2,2.8-19.7,7.6-27.8c0,0,0-0.1,0-0.1c3-4.9,6.7-9.3,11-13.1c9.5-8.3,22-13.3,35.6-13.3h74.2l-41.5,119.9
		c-2.9,8.3-1.5,17.4,3.5,24.6c0.6,0.8,1.2,1.6,1.9,2.4c0.4,0.4,0.8,0.9,1.2,1.3c1.5,1.5,3.2,2.8,5.1,3.9c0.8,0.5,1.6,0.9,2.4,1.2
		c1.7,0.8,3.5,1.4,5.4,1.8c0.9,0.2,1.7,0.4,2.6,0.5c0.1,0,0.3,0,0.4,0.1c1,0.1,2.1,0.2,3.1,0.2H536z"/>
	<linearGradient id="SVGID_3_" gradientUnits="userSpaceOnUse" x1="503.3604" y1="1149.6722" x2="281.6895" y2="961.1766">
		<stop  offset="4.177797e-03" style="stop-color:#0021DB"/>
		<stop  offset="0.1633" style="stop-color:#0046E1"/>
		<stop  offset="0.5384" style="stop-color:#0099EE"/>
		<stop  offset="0.8042" style="stop-color:#00CDF7"/>
		<stop  offset="0.9338" style="stop-color:#00E1FA"/>
	</linearGradient>
	<path style="opacity:0.5;fill:url(#SVGID_3_);" d="M535.9,1114.8l-24.2,14H370c-8.7,0-17-4.3-22.1-11.4c-5.1-7.1-6.4-16.3-3.5-24.6
		L385.9,973h-74.2c-13.2,0-25.2,4.7-34.6,12.5c9.5-15.9,26.8-26.5,46.6-26.5h74.2l-0.5,1.4l-0.2,0.7l-40.8,117.8
		c-2.8,8.3-1.5,17.5,3.5,24.6c5.1,7.1,13.3,11.4,22.1,11.4H535.9z"/>
	<linearGradient id="SVGID_4_" gradientUnits="userSpaceOnUse" x1="317.2783" y1="959.394" x2="482.4005" y2="1202.9304">
		<stop  offset="0" style="stop-color:#1DFAE4;stop-opacity:0"/>
		<stop  offset="0.5681" style="stop-color:#1DFAE4"/>
		<stop  offset="1" style="stop-color:#1DFAE4;stop-opacity:0"/>
	</linearGradient>
	<path class="st4" d="M511.7,1128.8c-26.7,1-53.4,1.7-80,2c-13.3,0.2-26.7,0.3-40,0.4l-20,0.1c-1.6,0-3.5,0-5.3-0.2
		c-1.8-0.2-3.6-0.6-5.3-1.2c-3.5-1.1-6.7-2.8-9.6-5.1c-5.7-4.6-9.5-11.4-10.6-18.6c-0.6-3.6-0.4-7.3,0.4-10.9c0.4-1.8,1-3.5,1.6-5
		l1.7-4.7c4.5-12.6,8.9-25.2,13.5-37.7c9-25.1,18.4-50.1,28.1-75l-41.5,119.9c-2.9,8.3-1.5,17.5,3.5,24.6
		c5.1,7.1,13.3,11.4,22.1,11.4H511.7z"/>
	<linearGradient id="SVGID_5_" gradientUnits="userSpaceOnUse" x1="215.147" y1="827.5699" x2="635.7953" y2="1141.8474">
		<stop  offset="0" style="stop-color:#F5F5F5"/>
		<stop  offset="4.211912e-02" style="stop-color:#EFEFEF"/>
		<stop  offset="9.829309e-02" style="stop-color:#DEDEDE"/>
		<stop  offset="0.1355" style="stop-color:#CFCFCF"/>
		<stop  offset="0.3138" style="stop-color:#C9C9C9"/>
		<stop  offset="0.5516" style="stop-color:#B8B8B8"/>
		<stop  offset="0.7375" style="stop-color:#A6A6A6"/>
		<stop  offset="1" style="stop-color:#636363"/>
	</linearGradient>
	<path class="st5" d="M281.2,793.4c-19.1,6.9-31.4,29.5-31.4,52.7v79.7h153.9c8.7,0,17,4.2,22.1,11.4c5.1,7.1,6.4,16.3,3.5,24.6
		l-41.5,119.9h180.1c17.5,0,34.6-4.6,49.7-13.3c4.1-2.4,7.8-5.2,10.9-8.4c-12.8,5.7-26.6,8.7-40.7,8.7H407.8l41.5-119.9
		c2.9-8.3,1.6-17.5-3.5-24.6c-5.1-7.1-13.3-11.4-22.1-11.4H269.8l22.9-62.8l2.2,0.3l51.3-8.3c0,0-3-1.7-3-44.1
		C310.3,783.9,296.8,787,281.2,793.4L281.2,793.4z"/>
	<g>
		<path class="st3" d="M648.2,1048c-3.5,3.7-7.7,6.9-12.2,9.4c-4.4,2.6-9.1,4.8-13.9,6.6c-9.6,3.7-19.8,5.9-30.2,6.5
			c-20.6,0.5-41,0.6-61.5,0.7l-61.5,0.5c-20.5,0.2-41,0.2-61.5,0.3h-3.2l1-3l27-78.6l13.5-39.3l0.8-2.4c0.3-0.7,0.5-1.5,0.6-2.3
			c0.3-1.5,0.5-3.1,0.6-4.7c0.1-3.1-0.4-6.3-1.4-9.3c-2.1-5.9-6.6-11-12.3-13.7c-2.8-1.4-5.9-2.2-9.1-2.5c-1.5-0.1-3.3-0.1-5-0.1
			l-5.2,0l-20.8-0.1l-41.5-0.1c-27.7-0.1-55.4-0.4-83.1-0.6h-1.6v-1.6l0.3-33.2l0.4-33.2c0-2.7,0.1-5.6,0.3-8.4
			c0.2-1.4,0.3-2.8,0.6-4.2c0.3-1.4,0.6-2.8,0.9-4.1c1.5-5.4,3.8-10.6,7-15.2c6.3-9.3,15.6-16.3,26.1-19.9
			c-19.1,6.9-33.9,25-33.9,48.2v69.8h153.8c8.8,0,17,4.2,22.1,11.4c5.1,7.1,6.4,16.3,3.5,24.6l-40.7,117.6h-0.8l0.5,0.7l-0.5,1.5
			h1.6l0.5,0.7l0.3-0.7h177.7c17.5,0,34.6-4.6,49.7-13.3C641.4,1054,645,1051.1,648.2,1048z"/>
	</g>
	<linearGradient id="SVGID_6_" gradientUnits="userSpaceOnUse" x1="289.3974" y1="924.7272" x2="662.8455" y2="924.7272">
		<stop  offset="0" style="stop-color:#FF52D2"/>
		<stop  offset="0.3115" style="stop-color:#E43DD5"/>
		<stop  offset="1" style="stop-color:#AC12DA"/>
	</linearGradient>
	<path class="st6" d="M648.2,1048L648.2,1048C648.2,1048,648.2,1048,648.2,1048c-2.4,1.1-4.8,2.1-7.3,2.9c-10.7,3.8-22,5.8-33.4,5.8
		H427.4l41.5-119.9c0.1-0.4,0.2-0.7,0.3-1.1c0.3-1.1,0.6-2.2,0.8-3.3c0.8-4.9,0.3-10-1.6-14.7c-0.4-1-0.8-1.9-1.3-2.8
		c-0.5-0.9-1.1-1.8-1.7-2.7c-5.1-7.1-13.3-11.4-22.1-11.4H289.4V831c0-14.1,5.4-26.2,14-35.2c12.4-4.4,26.5-4.2,39.7,2.3
		c1,0.5,2,1.1,3.1,1.6l216.3,124.9l74.1,42.8l0.8,0.5C667.2,985.1,670.9,1025.2,648.2,1048z"/>
	<linearGradient id="SVGID_7_" gradientUnits="userSpaceOnUse" x1="269.4227" y1="931.2291" x2="662.8455" y2="931.2291">
		<stop  offset="0" style="stop-color:#FF52D2"/>
		<stop  offset="0.3115" style="stop-color:#E43DD5"/>
		<stop  offset="1" style="stop-color:#AC12DA"/>
	</linearGradient>
	<path class="st7" d="M648.2,1048L648.2,1048C648.2,1048,648.2,1048,648.2,1048c-0.2,0.2-0.4,0.4-0.6,0.6c-0.3,0.3-0.6,0.6-1,0.9
		c-0.1,0.1-0.3,0.2-0.4,0.4c-0.6,0.5-1.2,1.1-1.8,1.6c-2.2,1.8-4.6,3.5-7.2,5c-3.3,1.9-6.7,3.6-10.1,5.1
		c-12.5,5.4-25.9,8.2-39.6,8.2H407.4l0.5-1.5l0.3-0.7l40.7-117.6c2.9-8.3,1.6-17.5-3.5-24.6c-5.1-7.1-13.3-11.4-22.1-11.4H269.4V844
		c0-23.2,14.8-41.3,34-48.2c12.4-4.4,26.5-4.2,39.7,2.3c1,0.5,2,1.1,3.1,1.6l216.3,124.9l74.1,42.8l0.8,0.5
		C667.2,985.1,670.9,1025.2,648.2,1048z"/>
	<linearGradient id="SVGID_8_" gradientUnits="userSpaceOnUse" x1="265.3249" y1="841.7195" x2="575.2117" y2="1098.0735">
		<stop  offset="0" style="stop-color:#FF52D2"/>
		<stop  offset="0.4238" style="stop-color:#D335CC"/>
		<stop  offset="1" style="stop-color:#9B10C4"/>
	</linearGradient>
	<path style="opacity:0.8;fill:url(#SVGID_8_);" d="M648.2,1048c-3.1,3.2-6.8,6-10.9,8.4c-15.1,8.7-32.3,13.3-49.7,13.3H407.4
		l0.5-1.5l0.3-0.7l40.7-117.6c2.9-8.3,1.6-17.5-3.5-24.6c-5.1-7.1-13.3-11.4-22.1-11.4H269.4V844c0-23.2,14.8-41.3,33.9-48.2
		c-8.5,8.9-14,21.1-14,35.2v69.8h153.9c8.7,0,17,4.3,22.1,11.4c5.1,7.1,6.4,16.3,3.5,24.6l-41.5,119.9h180.1
		C621.6,1056.7,635.4,1053.7,648.2,1048z"/>
	<path class="st8" d="M636.5,967.4c-22.8,24.4-55.1,56.4-93.7,89.3c-4.7,4-9.5,8-14.4,12.1c-0.4,0.3-0.8,0.6-1.1,0.9
		c-0.6,0.5-1.2,1-1.9,1.6c-4.3,3.5-8.6,7-13,10.5c-14,11.2-28.6,22.3-43.7,33.1l0,0c-6.6,4.7-13.3,9.4-20.1,14c0,0,0,0,0,0
		c-0.9,0.6-1.7,1.2-2.6,1.7h0c-52.4,35.2-109.4,65.3-166,80.9c-6.6-8.5-10.6-19.2-10.6-31.3v-38.9c26-6.1,50.8-15.1,74.2-26.2
		c0.7-0.3,1.5-0.7,2.3-1.1c5.4-2.6,10.7-5.3,16-8.1h0c13.9-7.4,27.3-15.5,40.2-24.1c4.8-3.2,9.5-6.5,14.1-9.8c1-0.7,2.1-1.5,3.1-2.2
		c0.4-0.3,0.9-0.6,1.3-0.9c5.4-3.9,10.7-8,15.8-12.1c54.8-43.4,97.6-93.7,126-132.1L636.5,967.4z"/>
</g>
</svg>
